# xmcd
#
# Track frame offsets: 
#        150
#        15875
#        29600
#        45899
#        61664
#        80299
#        97086
#        128280
#        143616
#        162564
#        181620
#        197071
#        212259
#        236385
#        253851
#        277851
#
# Disc length: 4141 seconds
#
# Revision: 0
# Processed by: cddbd v1.5.2PL0 Copyright (c) Steve Scherf et al.
# Submitted via: ExactAudioCopy v0.95b4
#
DISCID=bb102b10
DTITLE=The Sean Carney Band - Life of Ease
DYEAR=2006
DGENRE=Blues
TTITLE0=Life of Ease
TTITLE1=Why Do You Lie
TTITLE2=All These Worries
TTITLE3=Bad Side Baby
TTITLE4=I've Got A Gypsy Woman
TTITLE5=Pennies and Teardrops
TTITLE6=Outskirts of Town
TTITLE7=Tramp!
TTITLE8=I Live Alone
TTITLE9=Farmboy
TTITLE10=I Know Your Wig Is Gone
TTITLE11=That Man
TTITLE12=When It Rains It Pours
TTITLE13=Bad Side Baby (Live)
TTITLE14=Why Do You Lie (Live)
TTITLE15=Take Off Your Shoes (Live)
EXTD=
EXTT0=
EXTT1=
EXTT2=
EXTT3=
EXTT4=
EXTT5=
EXTT6=
EXTT7=
EXTT8=
EXTT9=
EXTT10=
EXTT11=
EXTT12=
EXTT13=
EXTT14=
EXTT15=
PLAYORDER=
